<svg width="125" height="125" viewBox="0 0 125 125" fill="none" xmlns="http://www.w3.org/2000/svg">
    <rect width="125" height="125" fill="white"/>
    <path d="M58.9158 94.7581V66.1738C55.0926 66.1738 51.4188 65.4421 47.8943 63.9785C44.3698 62.5149 41.2634 60.4391 38.5753 57.7509C35.8871 55.0627 33.8262 51.9564 32.3925 48.4319C30.9588 44.9074 30.2419 41.2336 30.2419 37.4104V30.2419H37.4104C41.1738 30.2419 44.8178 30.9737 48.3423 32.4373C51.8668 33.9008 54.9731 35.9767 57.6613 38.6649C59.5132 40.5167 61.0514 42.5478 62.276 44.7581C63.5006 46.9683 64.4415 49.328 65.0986 51.8369C65.3973 51.4188 65.7258 51.0155 66.0842 50.6272C66.4427 50.239 66.831 49.8357 67.2491 49.4176C69.9373 46.7294 73.0436 44.6535 76.5681 43.19C80.0926 41.7264 83.7664 40.9946 87.5896 40.9946H94.7581V48.1631C94.7581 51.9863 94.0263 55.6601 92.5627 59.1846C91.0992 62.7091 89.0233 65.8154 86.3351 68.5036C83.647 71.1918 80.5556 73.2527 77.0609 74.6864C73.5663 76.1201 69.9074 76.8369 66.0842 76.8369V94.7581H58.9158ZM58.9158 58.9158C58.9158 56.0484 58.3632 53.3154 57.2581 50.7169C56.1529 48.1183 54.5848 45.8035 52.5538 43.7724C50.5227 41.7413 48.2079 40.1732 45.6093 39.0681C43.0108 37.963 40.2778 37.4104 37.4104 37.4104C37.4104 40.2778 37.948 43.0257 39.0233 45.6541C40.0986 48.2826 41.6517 50.6123 43.6828 52.6434C45.7139 54.6744 48.0436 56.2276 50.6721 57.3029C53.3005 58.3781 56.0484 58.9158 58.9158 58.9158ZM66.0842 69.6685C68.9516 69.6685 71.6846 69.1308 74.2832 68.0556C76.8817 66.9803 79.1965 65.4271 81.2276 63.3961C83.2587 61.365 84.8268 59.0353 85.9319 56.4068C87.037 53.7784 87.5896 51.0305 87.5896 48.1631C84.7222 48.1631 81.9743 48.7157 79.3459 49.8208C76.7175 50.9259 74.3877 52.494 72.3566 54.5251C70.3256 56.5562 68.7724 58.871 67.6971 61.4695C66.6219 64.0681 66.0842 66.8011 66.0842 69.6685Z" fill="black"/>
</svg>
